<svg id="Capa_1" enable-background="new 0 0 512.001 512.001" height="512" viewBox="0 0 512.001 512.001" width="512" xmlns="http://www.w3.org/2000/svg"><g><path d="m170.8 426.1-21.299 21.301c-2.982-3.005-41.082-41.406-38.101-38.401l21-20.999c3.006 2.982 41.405 41.081 38.4 38.099z" fill="#cfd7e6"/><path d="m128.2 468.701-21 20.999c-3.005-2.982-41.404-41.08-38.399-38.099l21.299-21.3c2.981 3.005 41.082 41.406 38.1 38.4z" fill="#cfd7e6"/><path d="m155.856 356.145-21.212-21.213-134.644 134.643 21.213 21.213 21.213 21.213 134.643-134.643z" fill="#f3f5f9"/><path d="m3.934 419.073h190.414v29.999h-190.414z" fill="#e1e6f0" transform="matrix(.707 -.707 .707 .707 -277.898 197.24)"/><path d="m503.213 8.788c-11.717-11.717-30.71-11.717-42.426 0l-317.658 317.657 21.215 21.213 21.213 21.215 317.656-317.66c11.717-11.715 11.717-30.708 0-42.425z" fill="#ff7f40"/><path d="m503.213 51.213c11.717-11.715 11.717-30.709 0-42.426l-338.87 338.87 21.213 21.215z" fill="#f25a3c"/><path d="m170.706 341.295-42.427-42.426-21.213 21.213 42.427 42.426 42.426 42.427 21.213-21.213z" fill="#3d5b99"/><path d="m166.313 343.115h29.999v60h-29.999z" fill="#334280" transform="matrix(.707 -.707 .707 .707 -210.724 237.482)"/><path d="m447.401 362.5-32.101 31.8-21-21 31.8-32.099z" fill="#cfd7e6"/><path d="m436.6 415.601 32.1-31.8 21 21-31.8 32.1z" fill="#cfd7e6"/><path d="m377.357 334.932-21.212 21.213-21.213 21.213 134.643 134.643 21.213-21.213 21.212-21.213z" fill="#f3f5f9"/><path d="m419.073 317.653h29.999v190.414h-29.999z" fill="#e1e6f0" transform="matrix(.707 -.707 .707 .707 -164.799 427.86)"/><path d="m51.213 8.788c-11.715-11.717-30.709-11.717-42.426 0s-11.717 30.71 0 42.426l317.657 317.659 21.215-21.215 21.213-21.213z" fill="#4dd3ff"/><path d="m51.213 8.788c-11.715-11.717-30.709-11.717-42.426 0l338.872 338.87 21.213-21.213z" fill="#3af"/><path d="m383.722 298.869-42.426 42.426-42.427 42.427 21.213 21.213 42.427-42.427 42.426-42.426z" fill="#3d5b99"/><path d="m343.116 315.689h59.999v29.999h-59.999z" fill="#334280" transform="matrix(.707 -.707 .707 .707 -124.549 360.689)"/></g></svg>